<?xml version="1.0" standalone="no"?><!DOCTYPE svg PUBLIC "-//W3C//DTD SVG 1.1//EN" "http://www.w3.org/Graphics/SVG/1.1/DTD/svg11.dtd"><svg t="1731303168604" class="icon" viewBox="0 0 1024 1024" version="1.1" xmlns="http://www.w3.org/2000/svg" p-id="2762" xmlns:xlink="http://www.w3.org/1999/xlink" width="32" height="32"><path d="M554.642286 286.500571a182.857143 182.857143 0 0 1 182.857143 182.857143v256a182.857143 182.857143 0 0 1-182.857143 182.857143h-256a182.857143 182.857143 0 0 1-182.857143-182.857143v-256a182.857143 182.857143 0 0 1 182.857143-182.857143h256z m0 109.714286h-256a73.142857 73.142857 0 0 0-73.142857 73.142857v256a73.142857 73.142857 0 0 0 73.142857 73.142857h256a73.142857 73.142857 0 0 0 73.142857-73.142857v-256a73.142857 73.142857 0 0 0-73.142857-73.142857z" fill="#CBCBCB" p-id="2763"></path><path d="M725.357714 115.785143a182.857143 182.857143 0 0 1 182.857143 182.857143v256a182.857143 182.857143 0 0 1-182.857143 182.857143h-42.715428v-109.714286h42.715428a73.142857 73.142857 0 0 0 73.142857-73.142857v-256a73.142857 73.142857 0 0 0-73.142857-73.142857h-256a73.142857 73.142857 0 0 0-73.142857 73.142857v45.421714h-109.714286v-45.348571a182.857143 182.857143 0 0 1 182.857143-182.857143h256z" fill="#CBCBCB" p-id="2764"></path></svg>