<?xml version="1.0" standalone="no"?><!DOCTYPE svg PUBLIC "-//W3C//DTD SVG 1.1//EN" "http://www.w3.org/Graphics/SVG/1.1/DTD/svg11.dtd"><svg t="1731289364758" class="icon" viewBox="0 0 1024 1024" version="1.1" xmlns="http://www.w3.org/2000/svg" p-id="2610" data-spm-anchor-id="a313x.manage_type_myprojects.0.i1.48843a81nt3xOO" xmlns:xlink="http://www.w3.org/1999/xlink" width="32" height="32"><path d="M512 512m-469.333333 0a469.333333 469.333333 0 1 0 938.666666 0 469.333333 469.333333 0 1 0-938.666666 0Z" fill="#EEEEEE" p-id="2611" data-spm-anchor-id="a313x.manage_type_myprojects.0.i0.48843a81nt3xOO" class="selected"></path><path d="M353.834667 353.834667a42.666667 42.666667 0 0 1 60.330666 0L512 451.626667l97.834667-97.792a42.666667 42.666667 0 0 1 56.32-3.541334l4.010666 3.541334a42.666667 42.666667 0 0 1 0 60.330666L572.330667 512l97.834666 97.834667a42.666667 42.666667 0 0 1 3.541334 56.32l-3.541334 4.010666a42.666667 42.666667 0 0 1-60.330666 0L512 572.330667l-97.834667 97.834666a42.666667 42.666667 0 0 1-56.32 3.541334l-4.010666-3.541334a42.666667 42.666667 0 0 1 0-60.330666L451.626667 512 353.834667 414.165333a42.666667 42.666667 0 0 1-3.541334-56.32l3.541334-4.010666z" fill="#8D8D8D" p-id="2612"></path></svg>