<?xml version="1.0" standalone="no"?><!DOCTYPE svg PUBLIC "-//W3C//DTD SVG 1.1//EN" "http://www.w3.org/Graphics/SVG/1.1/DTD/svg11.dtd"><svg t="1731303881423" class="icon" viewBox="0 0 1024 1024" version="1.1" xmlns="http://www.w3.org/2000/svg" p-id="5408" xmlns:xlink="http://www.w3.org/1999/xlink" width="32" height="32"><path d="M511.604956 981.366254c283.088075 0 511.604956-69.919344 511.604955-153.481487S794.693031 674.40328 511.604956 674.40328 0 740.05925 0 827.884767c0 83.562143 228.51688 153.481487 511.604956 153.481487z" fill="#F7F8FC" p-id="5409"></path><path d="M903.835422 167.061699c0 7.674074 4.263375 14.495474 11.084774 18.758849 6.821399 4.263375 15.348149 4.263375 21.316873 0 6.821399-4.263375 11.084774-11.084774 11.084774-18.758849 0-7.674074-4.263375-14.495474-11.084774-18.758848-6.821399-4.263375-15.348149-4.263375-21.316873 0-6.821399 5.11605-11.084774 11.937449-11.084774 18.758848z" fill="#F0F2F8" p-id="5410"></path><path d="M76.740743 387.904505V785.251021l434.864213 76.740743V350.386808z" fill="#DFE4EE" p-id="5411"></path><path d="M937.942419 384.493805v397.346516L511.604956 861.991764V350.386808z" fill="#F7F8FC" p-id="5412"></path><path d="M76.740743 384.493805v397.346516L520.131705 947.259257V444.18105z" fill="#DFE4EE" p-id="5413"></path><path d="M937.942419 384.493805v417.810714l-417.810714 144.954738V444.18105z" fill="#C9CFDD" p-id="5414"></path><path d="M937.942419 384.493805l52.01317 168.829636-391.377791 110.84774L520.131705 444.18105z" fill="#DFE4EE" p-id="5415"></path><path d="M77.593418 384.493805L25.580248 543.944017l415.252689 116.816464L520.131705 444.18105z" fill="#F7F8FC" p-id="5416"></path><path d="M107.437041 23.812312c-3.4107-4.263375-8.526749-5.968724-12.790124-3.4107L57.12922 44.27651c-1.70535 0.852675-2.558025 0.852675-3.4107 2.558025-1.70535 5.11605-0.852675 10.232099 4.263375 13.642798l34.959672 20.464199c1.70535 0.852675 3.4107 1.70535 4.263375 1.705349 5.11605 0.852675 10.232099-3.4107 10.232099-8.526749l3.410699-43.486421c-1.70535-3.4107-1.70535-5.11605-3.410699-6.821399z m17.906173 51.160495c-0.852675 15.348149-14.495474 26.432923-29.843622 25.580248-4.263375-0.852675-8.526749-1.70535-11.937449-3.4107L48.602471 74.972807c-13.642799-8.526749-18.758848-25.580248-11.084774-38.370372 2.558025-3.4107 5.11605-6.821399 9.379424-9.379424L84.414818 4.200788c12.790124-8.526749 30.696297-3.4107 39.223046 9.379424 3.4107 5.11605 5.11605 11.084774 4.263375 17.053499l-2.558025 44.339096z m712.836238 631.83212c-2.558025-3.4107-5.968724-3.4107-8.526749-2.558024l-23.874898 13.642799c-0.852675 0.852675-1.70535 0.852675-1.70535 1.705349-1.70535 3.4107-0.852675 5.968724 2.558025 8.52675l23.022223 13.642798c0.852675 0.852675 1.70535 0.852675 3.4107 0.852675 3.4107 0.852675 5.968724-1.70535 5.968724-5.116049l0.852675-27.285598c0-0.852675-0.852675-1.70535-1.70535-3.4107z m12.790124 32.401648c0 10.232099-9.379424 17.053499-19.611523 15.348148-3.4107 0-5.11605-1.70535-8.526749-3.410699l-23.022223-13.642799c-9.379424-5.11605-11.937449-17.053499-7.674075-24.727573 1.70535-2.558025 3.4107-4.263375 5.11605-5.11605l23.874898-13.642798c8.526749-4.263375 19.611523-2.558025 26.432923 6.821399 2.558025 3.4107 4.263375 6.821399 3.410699 11.084774v27.285598z" fill="#DFE4EE" p-id="5417"></path><path d="M298.436224 300.931663c-23.874898 0-42.633746-18.758848-42.633746-42.633747 0-24.727573 18.758848-44.339096 42.633746-44.339096s42.633746 18.758848 42.633746 42.633746c1.70535 23.874898-17.906173 44.339096-42.633746 44.339097z m0-61.392595c-9.379424 0-17.053499 7.674074-17.053498 17.906173 0 9.379424 7.674074 17.906173 17.053498 17.906174s17.053499-7.674074 17.053499-17.906174c1.70535-10.232099-5.968724-17.906173-17.053499-17.906173z" fill="#F0F2F8" p-id="5418"></path><path d="M635.24282 382.788456c-32.401647 14.495474-65.655969 18.758848-78.446093 17.906173-5.11605 0-6.821399-5.968724-2.558025-9.379424 5.11605-4.263375 14.495474-12.790124 24.727573-24.727573-40.928396-18.758848-68.213994-49.455146-68.213994-85.267493 0-56.276545 69.066669-102.320991 153.481486-102.320991s153.481487 46.044446 153.481487 102.320991-69.066669 102.320991-153.481487 102.320991c-9.379424 0.852675-19.611523 0-28.990947-0.852674z" fill="#DFE4EE" p-id="5419"></path><path d="M648.032944 282.172814c0-5.11605 3.4107-11.084774 8.526749-14.495474 5.11605-3.4107 11.937449-3.4107 17.053499 0 5.11605 3.4107 8.526749 8.526749 8.526749 14.495474s-3.4107 11.084774-8.526749 14.495474c-5.11605 3.4107-11.937449 3.4107-17.053499 0-5.11605-3.4107-8.526749-8.526749-8.526749-14.495474z m68.213994 0c0-5.11605 3.4107-11.084774 8.526749-14.495474 5.11605-3.4107 11.937449-3.4107 17.053499 0 5.11605 3.4107 8.526749 8.526749 8.526749 14.495474s-3.4107 11.084774-8.526749 14.495474c-5.11605 3.4107-11.937449 3.4107-17.053499 0-5.11605-3.4107-8.526749-8.526749-8.526749-14.495474z m-136.427988 0c0-5.11605 3.4107-11.084774 8.526749-14.495474 5.11605-3.4107 11.937449-3.4107 17.053499 0 5.11605 3.4107 8.526749 8.526749 8.526749 14.495474s-3.4107 11.084774-8.526749 14.495474c-5.11605 3.4107-11.937449 3.4107-17.053499 0-5.11605-3.4107-8.526749-8.526749-8.526749-14.495474z" fill="#FFFFFF" p-id="5420"></path></svg>