<?xml version="1.0" standalone="no"?><!DOCTYPE svg PUBLIC "-//W3C//DTD SVG 1.1//EN" "http://www.w3.org/Graphics/SVG/1.1/DTD/svg11.dtd"><svg t="1731303899088" class="icon" viewBox="0 0 1024 1024" version="1.1" xmlns="http://www.w3.org/2000/svg" p-id="6755" xmlns:xlink="http://www.w3.org/1999/xlink" width="32" height="32"><path d="M71.999 498.801c0 134.189 59.835 253.859 153.987 333.932h571.952C892.09 752.22 951.925 632.11 951.925 498.801c0-242.859-197.104-439.963-439.963-439.963S71.999 255.502 71.999 498.801z" fill="#F7F7F7" p-id="6756"></path><path d="M200.469 845.492c-3.519 0-6.159-2.64-6.159-6.159s2.64-6.159 6.159-6.159h251.659c3.519 0 6.159 2.64 6.159 6.159s-2.64 6.159-6.159 6.159H200.469z m276.297 0c-3.519 0-6.159-2.64-6.159-6.159s2.64-6.159 6.159-6.159h50.156c3.519 0 6.159 2.64 6.159 6.159s-2.64 6.159-6.159 6.159h-50.156z m75.674 0c-3.519 0-6.159-2.64-6.159-6.159s2.64-6.159 6.159-6.159c3.519 0 6.159 2.64 6.159 6.159s-2.64 6.159-6.159 6.159z m24.638 0c-3.519 0-6.159-2.64-6.159-6.159s2.64-6.159 6.159-6.159h235.821c3.519 0 6.159 2.64 6.159 6.159s-2.64 6.159-6.159 6.159H577.078z" fill="#DDDDDD" p-id="6757"></path><path d="M283.183 992c-3.519 0-7.04-2.64-7.04-7.04 0-3.519 2.64-7.04 7.04-7.04h269.258c3.519 0 7.04 2.64 7.04 7.04 0 3.519-2.64 7.04-7.04 7.04H283.183z m296.095 0c-3.519 0-7.04-2.64-7.04-7.04 0-3.519 2.64-7.04 7.04-7.04h53.676c3.519 0 7.04 2.64 7.04 7.04 0 3.519-2.64 7.04-7.04 7.04h-53.676z m80.512 0c-3.519 0-7.04-2.64-7.04-7.04 0-3.519 2.64-7.04 7.04-7.04 3.519 0 7.04 2.64 7.04 7.04 0.44 3.96-3.08 7.04-7.04 7.04z m27.279 0c-3.519 0-7.04-2.64-7.04-7.04 0-3.519 2.64-7.04 7.04-7.04h42.677c3.519 0 7.04 2.64 7.04 7.04 0 3.519-2.64 7.04-7.04 7.04h-42.677zM401.092 885.969c-3.519 0-6.159-2.64-6.159-6.159s2.64-6.159 6.159-6.159h125.829c3.519 0 6.159 2.64 6.159 6.159s-2.64 6.159-6.159 6.159H401.092z m151.348 0c-3.519 0-6.159-2.64-6.159-6.159s2.64-6.159 6.159-6.159h50.156c3.519 0 6.159 2.64 6.159 6.159s-2.64 6.159-6.159 6.159H552.44z m75.233 0c-3.519 0-6.159-2.64-6.159-6.159s2.64-6.159 6.159-6.159c3.519 0 6.159 2.64 6.159 6.159s-2.199 6.159-6.159 6.159z m25.079 0c-3.519 0-6.159-2.64-6.159-6.159s2.64-6.159 6.159-6.159h82.713c3.519 0 6.159 2.64 6.159 6.159s-2.64 6.159-6.159 6.159h-82.713z" fill="#bfbfbf" p-id="6758"></path><path d="M641.312 775.978c0-2.64 2.199-3.96 3.96-3.96 2.64 0 3.96 2.199 3.96 3.96v35.197c0 2.199-2.199 3.96-3.96 3.96-2.64 0-3.96-2.199-3.96-3.96v-35.197z m0-106.031c0-2.64 2.199-3.96 3.96-3.96 2.64 0 3.96 2.199 3.96 3.96v87.993c0 2.64-2.199 3.96-3.96 3.96-2.64 0-3.96-2.199-3.96-3.96v-87.993z m43.996 85.353c0-2.64 2.199-3.96 3.96-3.96 2.199 0 3.96 2.199 3.96 3.96v43.996c0 2.64-2.199 3.96-3.96 3.96-2.199 0-3.96-2.199-3.96-3.96V755.3z m0-61.595c0-2.64 2.199-3.96 3.96-3.96 2.199 0 3.96 2.199 3.96 3.96v43.996c0 2.64-2.199 3.96-3.96 3.96-2.199 0-3.96-2.199-3.96-3.96v-43.996z m-317.213 55.436c0-2.64 2.199-3.96 3.96-3.96s3.96 2.199 3.96 3.96v43.996c0 2.64-2.199 3.96-3.96 3.96s-3.96-2.199-3.96-3.96v-43.996z m0-61.155c0-2.64 2.199-3.96 3.96-3.96s3.96 2.199 3.96 3.96v43.996c0 2.64-2.199 3.96-3.96 3.96s-3.96-2.199-3.96-3.96v-43.996z m238.021 93.711c0-2.64 2.199-3.96 3.96-3.96s3.96 2.199 3.96 3.96v8.799c0 2.64-2.199 3.96-3.96 3.96s-3.96-2.199-3.96-3.96v-8.799z m0-61.595c0-2.64 2.199-3.96 3.96-3.96s3.96 2.199 3.96 3.96v43.996c0 2.199-2.199 3.96-3.96 3.96s-3.96-2.199-3.96-3.96v-43.996z m-263.979 43.997c0-2.64 2.199-3.96 3.96-3.96 2.199 0 3.96 2.199 3.96 3.96v8.799c0 2.199-2.199 3.96-3.96 3.96-2.199 0-3.96-2.199-3.96-3.96v-8.799z m0-61.595c0-2.64 2.199-3.96 3.96-3.96 2.199 0 3.96 2.199 3.96 3.96V746.5c0 2.64-2.199 3.96-3.96 3.96-2.199 0-3.96-2.199-3.96-3.96v-43.996z m75.674 17.598c0-2.64 2.199-3.96 3.96-3.96s3.96 2.199 3.96 3.96v43.996c0 2.199-2.199 3.96-3.96 3.96s-3.96-2.199-3.96-3.96v-43.996z" fill="#bfbfbf" p-id="6759"></path><path d="M300.78 525.199h393.327v67.314c0 14.519 11.879 25.958 25.957 25.958h20.678c2.199 0-18.038-0.88-18.038-0.88l11.879 3.519s0 25.957-14.519 25.957h-20.678c-14.519 0-25.957-11.879-25.957-25.957v-67.314H300.78z" fill="#F1F1F1" p-id="6760"></path><path d="M793.979 251.982h-67.314v-83.153c0.88-15.839 14.959-28.158 31.677-28.158h3.519c17.158 0 30.798 12.319 31.677 28.158v83.153h0.44z m-9.239-8.8v-74.354c-0.88-10.999-10.999-19.798-22.878-19.798h-3.519c-12.319 0-21.998 8.799-22.878 19.798v73.913h49.276v0.44z" fill="#bfbfbf" p-id="6761"></path><path d="M709.066 654.108h-20.678c-14.519 0-25.957-11.879-25.957-25.958v-67.314H289.342V163.989c0-16.718 13.199-29.478 29.037-29.478h446.123c6.159 0 12.319 2.199 16.279 5.28 7.479 5.28 12.319 13.639 12.319 24.198v14.519c0-14.519-11.879-25.957-25.958-25.957h-5.28c-14.519 0-25.957 11.879-25.957 25.957V398.49c0 3.96-3.519 7.479-7.479 7.479s-7.479-3.519-7.479-7.479V178.508c0-11.879 4.839-21.998 12.319-29.478H317.94c-8.36 0-14.519 7.04-14.519 14.519v381.448h359.01c8.36 0 14.519 7.04 14.519 14.519v67.314c0 6.159 5.28 11.879 11.879 11.879h20.678c6.159 0 11.879-5.28 11.879-11.879V487.362c0-3.96 3.519-7.479 7.479-7.479s7.479 3.519 7.479 7.479V628.15c-0.88 13.639-12.759 25.957-27.278 25.957z m18.919-188.744c-3.96 0-7.479-3.519-7.479-7.479v-29.478c0-3.96 3.519-7.479 7.479-7.479s7.479 3.519 7.479 7.479v29.478c0 3.96-3.519 7.479-7.479 7.479z" fill="#bfbfbf" p-id="6762"></path><path d="M641.312 775.978c0-2.64 2.199-3.96 3.96-3.96 2.64 0 3.96 2.199 3.96 3.96v35.197c0 2.199-2.199 3.96-3.96 3.96-2.64 0-3.96-2.199-3.96-3.96v-35.197z m0-106.031c0-2.64 2.199-3.96 3.96-3.96 2.64 0 3.96 2.199 3.96 3.96v87.993c0 2.64-2.199 3.96-3.96 3.96-2.64 0-3.96-2.199-3.96-3.96v-87.993z m43.996 85.353c0-2.64 2.199-3.96 3.96-3.96 2.199 0 3.96 2.199 3.96 3.96v43.996c0 2.64-2.199 3.96-3.96 3.96-2.199 0-3.96-2.199-3.96-3.96V755.3z m0-61.595c0-2.64 2.199-3.96 3.96-3.96 2.199 0 3.96 2.199 3.96 3.96v43.996c0 2.64-2.199 3.96-3.96 3.96-2.199 0-3.96-2.199-3.96-3.96v-43.996z m-317.213 55.436c0-2.64 2.199-3.96 3.96-3.96s3.96 2.199 3.96 3.96v43.996c0 2.64-2.199 3.96-3.96 3.96s-3.96-2.199-3.96-3.96v-43.996z m0-61.155c0-2.64 2.199-3.96 3.96-3.96s3.96 2.199 3.96 3.96v43.996c0 2.64-2.199 3.96-3.96 3.96s-3.96-2.199-3.96-3.96v-43.996z" fill="#bfbfbf" p-id="6763"></path><path d="M866.574 471.963c-16.718 0-29.478-13.199-29.478-29.478 0-16.28 13.197-29.478 29.478-29.478 16.28 0 29.478 13.197 29.478 29.478 0 16.279-12.759 29.478-29.478 29.478z m0-8.799c10.999 0 20.678-8.799 20.678-20.678 0-10.999-8.799-20.678-20.678-20.678s-20.678 8.799-20.678 20.678 9.679 20.678 20.678 20.678z" fill="#bfbfbf" p-id="6764"></path><path d="M812.458 413.888h-2.64c-1.32 0-2.64-1.32-2.64-2.64v-47.076c0-1.32 1.32-2.64 2.64-2.64h2.64c1.32 0 2.64 1.32 2.64 2.64v46.636c0.88 1.32-0.44 3.08-2.64 3.08z m21.998-21.998H787.82c-1.32 0-2.64-1.32-2.64-2.64v-2.64c0-1.32 1.32-2.64 2.64-2.64h46.636c1.32 0 2.64 1.32 2.64 2.64v2.64c0.88 0.88-0.44 2.64-2.64 2.64zM273.942 117.353c-13.199 0-23.318-10.119-23.318-23.318s10.119-23.318 23.318-23.318 23.318 10.119 23.318 23.318c0.88 13.199-10.119 23.318-23.318 23.318z m0-8.8c8.36 0 14.519-7.04 14.519-14.519s-7.04-14.519-14.519-14.519c-8.36 0-14.519 7.04-14.519 14.519s7.04 14.519 14.519 14.519z" fill="#bfbfbf" p-id="6765"></path><path d="M324.099 64.558c-8.36 0-14.519-7.04-14.519-14.519s7.04-14.519 14.519-14.519c8.36 0 14.519 7.04 14.519 14.519s-6.159 14.519-14.519 14.519z m0-8.8c3.519 0 6.159-2.64 6.159-6.159s-2.64-6.159-6.159-6.159-6.159 2.64-6.159 5.72 3.08 6.599 6.159 6.599z" fill="#bfbfbf" p-id="6766"></path><path d="M168.792 114.713c0 8.36 7.04 14.519 14.519 14.519s14.519-7.04 14.519-14.519-7.04-14.519-14.519-14.519-14.519 6.159-14.519 14.519z" fill="#DDDDDD" p-id="6767"></path><path d="M227.307 126.152c4.839 0 8.799 3.96 8.799 8.799s-3.96 8.799-8.799 8.799-8.799-3.96-8.799-8.799c0-5.28 3.96-8.799 8.799-8.799zM783.42 51.358h-3.519c-2.199 0-3.519-1.32-3.519-3.519V35.52c0-2.199 1.32-3.519 3.519-3.519h2.64c2.199 0 3.519 1.32 3.519 3.519v12.319c0.88 2.199-1.32 3.519-2.64 3.519z m0 45.316h-3.519c-2.199 0-3.519-1.32-3.519-3.519V80.836c0-2.199 1.32-3.519 3.519-3.519h2.64c2.199 0 3.519 1.32 3.519 3.519v12.319c0.88 2.199-1.32 3.519-2.64 3.519z m27.718-25.957h-13.199c-2.199 0-3.519-1.32-3.519-3.519v-2.64c0-2.199 1.32-3.519 3.519-3.519h13.199c2.199 0 3.519 1.32 3.519 3.519v2.64c-0.88 2.199-2.199 3.519-3.519 3.519z m-44.876 0h-13.639c-2.199 0-3.519-1.32-3.519-3.519v-2.64c0-2.199 1.32-3.519 3.519-3.519h13.199c2.199 0 3.519 1.32 3.519 3.519v2.64c-0.44 2.199-1.76 3.519-3.08 3.519z m115.71 530.596c0 5.72-3.96 9.679-9.679 9.679-2.199 0-3.519-0.88-4.839-1.32v6.159c-5.28 0-9.679-3.96-9.679-9.679 0-2.199 0.88-3.519 1.32-4.839h-6.159c0-5.72 3.96-9.679 9.679-9.679 2.199 0 3.519 0.88 4.839 1.32v-6.159c5.72 0 9.679 3.96 9.679 9.679 0 2.199-0.88 3.519-1.32 4.839h6.159z m-62.034-384.088c-8.36 0-14.519-7.04-14.519-14.519s7.04-14.519 14.519-14.519c8.36 0 14.519 7.04 14.519 14.519s-6.159 14.519-14.519 14.519z m0-9.239c3.519 0 6.159-2.64 6.159-6.159s-2.64-6.159-6.159-6.159-6.159 2.64-6.159 6.159c0 3.519 2.64 6.159 6.159 6.159z m8.798-111.312c3.519 0 6.159 2.64 6.159 6.159s-2.64 6.159-6.159 6.159-6.159-2.64-6.159-6.159 3.08-6.159 6.159-6.159z" fill="#bfbfbf" p-id="6768"></path><path d="M211.468 268.7l-14.519 14.519 14.519 14.519c1.32 1.32 1.32 3.519 0 4.839l-1.32 1.32c-1.32 1.32-3.519 1.32-4.839 0l-14.519-14.519-14.519 14.519c-1.32 1.32-3.519 1.32-4.839 0l-1.32-1.32c-1.32-1.32-1.32-3.519 0-4.839l14.519-14.519-14.519-14.519c-1.32-1.32-1.32-3.519 0-4.839l1.32-1.32c1.32-1.32 3.519-1.32 4.839 0l14.519 14.519 14.519-14.519c1.32-1.32 3.519-1.32 4.839 0l1.32 1.32c1.32 1.32 1.32 3.519 0 4.839z m54.555 95.033c0 10.999-8.799 19.358-19.358 19.358-3.519 0-7.04-0.88-9.679-2.64v12.319c-10.999 0-19.358-8.799-19.358-19.358 0-3.519 0.88-7.04 2.64-9.679h-12.319c0-10.999 8.799-19.358 19.358-19.358 3.519 0 7.04 0.88 9.679 2.64v-12.319c10.999 0 19.358 8.799 19.358 19.358 0 3.519-0.88 7.04-2.64 9.679h12.319z m439.964 293.455H273.943c-15.839 0-29.037-13.199-29.037-29.478v-81.833h320.293c3.96 0 7.479 3.519 7.479 7.479s-3.519 7.479-7.479 7.479H259.865v67.314c0 8.36 6.159 14.519 14.519 14.519H674.31c-7.479-7.479-12.319-18.478-12.319-29.478v-52.795h-8.36c-3.96 0-7.479-3.519-7.479-7.479s3.519-7.479 7.479-7.479h23.318v67.314c0 14.519 11.879 25.958 25.957 25.958h5.28c2.199 0 4.839 0 7.04-0.88 10.999-2.64 19.358-13.199 19.358-25.518v14.519c0 17.158-12.759 30.357-28.597 30.357z m-81.833-97.232h-29.478c-3.96 0-7.479-3.519-7.479-7.479s3.519-7.479 7.479-7.479h29.478c3.96 0 7.479 3.519 7.479 7.479 0 4.4-3.519 7.479-7.479 7.479z m-123.19-274.097c0-3.519-2.64-6.159-5.28-6.159-19.358 0-35.197-13.199-42.677-19.358-2.199-1.32-2.64-2.64-3.96-2.64-2.64-1.32-6.159-0.88-7.479 2.199-2.199 2.64-0.88 6.159 2.199 8.36 0.88 0.88 2.199 1.32 2.64 2.64 8.799 7.04 26.838 21.118 49.276 21.118 2.64 0 5.28-2.64 5.28-6.159z m70.834-29.038c-0.88 0.88-2.199 1.32-3.96 2.64-8.36 6.159-24.198 19.358-42.677 19.358-2.64 0-5.28 2.64-5.28 6.159s2.64 6.159 5.28 6.159c22.878 0 40.477-14.519 49.276-21.118 1.32-0.88 2.64-2.199 2.64-2.64 2.64-1.32 3.519-5.72 2.199-8.36-1.32-2.64-4.839-3.519-7.479-2.199zM549.8 416.528l-35.197-19.358c-1.32-0.88-2.64-0.88-3.96 0l-30.798 19.358c-2.64 1.32-3.519 5.28-2.199 8.36 1.32 2.64 3.96 4.839 7.04 2.64l29.037-18.038 32.117 18.038c0.88 0.88 1.32 0.88 2.199 0.88 2.199 0 3.96-1.32 4.839-3.519 0.88-3.519-0.44-7.04-3.08-8.36z m-88.873-108.671h-86.233c-3.96 0-7.04 3.96-7.04 9.679 0 4.839 2.64 9.679 7.04 9.679h16.718c7.04 18.478 2.199 37.837 2.199 37.837-11.879 35.637 0 58.515 0 58.515 7.04 19.358 2.199 41.797 2.199 41.797 26.838-6.159 46.196 6.159 46.196 6.159 13.199-18.038 2.199-46.196 2.199-46.196-8.36-22.878 0-47.516 0-47.516 7.04-19.358 5.28-40.037 3.96-51.475h14.519c3.96 0 7.04-3.96 7.04-9.679-1.76-4.839-5.28-8.799-8.799-8.799z" fill="#bfbfbf" p-id="6769"></path><path d="M437.609 372.972l-0.44 1.32c-3.519 11.879-8.36 25.957 2.199 55.875 6.159 18.038 2.199 29.037-0.88 32.997-0.88 0-0.88-0.88-1.32-0.88-6.159-2.64-11.879-3.96-17.158-4.839h-1.32c-2.64-0.88-4.839-0.88-7.479-0.88h-2.199c-2.199 0-3.96 0-5.72 0.88h-1.32c-0.88 0-0.88 0-1.32 0.88 2.199-9.679 2.199-23.318-2.64-32.117-7.479-14.959-7.04-41.357 0-63.795 2.64-8.799 0-24.198-2.199-34.317h44.876c2.64 7.04 3.96 24.198-3.08 44.876z" fill="#FFFFFF" p-id="6770"></path><path d="M650.112 307.857h-86.673c-3.96 0-7.04 3.96-7.04 9.679 0 4.839 2.64 9.679 7.04 9.679h14.959c-2.199 12.319-2.64 32.117 3.96 51.475 0 0 8.36 24.638 0 47.516 0 0-11.879 28.158 2.199 46.196 0 0 19.798-12.319 46.196-6.159 0 0-5.72-22.878 2.199-41.797 0 0 11.879-23.318 0-58.515 0 0-5.72-19.358 2.199-37.837h15.839c3.96 0 7.04-3.96 7.04-9.679-0.88-6.599-4.4-10.559-7.919-10.559z" fill="#bfbfbf" p-id="6771"></path><path d="M625.914 360.653c7.04 23.318 7.479 49.276 0 63.795-4.839 9.679-3.96 23.318-2.64 32.117-0.88 0-0.88 0-1.32-0.88h-1.32c-2.199-0.88-3.96-0.88-5.72-0.88h-1.76c-2.199 0-4.839 0-7.479 0.88h-1.32c-5.28 0.88-10.999 2.64-17.158 4.839-0.88 0-0.88 0.88-1.32 0.88-2.64-4.839-7.04-14.519-0.88-32.997 10.119-29.478 5.72-43.996 2.199-55.875l-0.88-1.32c-7.04-20.678-4.839-37.837-2.64-47.516h44.876c-2.64 13.199-5.28 28.158-2.64 36.957z" fill="#FFFFFF" p-id="6772"></path></svg>